<mxfile host="Electron" modified="2023-05-27T13:48:28.775Z" agent="Mozilla/5.0 (Macintosh; Intel Mac OS X 10_15_7) AppleWebKit/537.36 (KHTML, like Gecko) draw.io/21.2.1 Chrome/112.0.5615.87 Electron/24.1.2 Safari/537.36" etag="9g-VQUXA-wH7j5cUbdtT" version="21.2.1" type="device">
  <diagram name="Page-1" id="H1nZVYqxkzLZFgEqRADx">
    <mxGraphModel dx="-380" dy="1945" grid="1" gridSize="10" guides="1" tooltips="1" connect="1" arrows="1" fold="1" page="1" pageScale="1" pageWidth="850" pageHeight="1100" math="0" shadow="0">
      <root>
        <mxCell id="0" />
        <mxCell id="1" parent="0" />
        <mxCell id="AsBp8XiL8Dx4Y6rQVwFH-15359" value="R, W: 89, H: 71, ORDER: 20, GC: {33, 15, 20, 10, 5, 21, 7, 8, 2, 17, 1, 9, 22, 38, 3, 12, 11, 6, 28, 23} " style="text;html=1;strokeColor=none;fillColor=none;align=center;verticalAlign=middle;whiteSpace=wrap;rounded=0;" parent="1" vertex="1">
          <mxGeometry x="1930" width="890" height="30" as="geometry" />
        </mxCell>
        <mxCell id="AsBp8XiL8Dx4Y6rQVwFH-38293" value="R, W: 89, H: 80, ORDER: 22, GC: {21, 16, 27, 5, 11, 25, 2, 23, 26, 13, 15, 12, 3, 9, 7, 6, 4, 14, 10, 32, 33, 24} " style="text;html=1;strokeColor=none;fillColor=none;align=center;verticalAlign=middle;whiteSpace=wrap;rounded=0;" parent="1" vertex="1">
          <mxGeometry x="1930" y="840" width="890" height="30" as="geometry" />
        </mxCell>
        <mxCell id="AcNVtCY9QU1KKcm0z4cP-1" value="" style="group;flipV=1;" vertex="1" connectable="0" parent="1">
          <mxGeometry x="1930" y="890" width="890" height="800" as="geometry" />
        </mxCell>
        <mxCell id="761dnnyQ54j-Cl0NHfQN-38294" value="21" style="rounded=0;whiteSpace=wrap;html=1;" parent="AcNVtCY9QU1KKcm0z4cP-1" vertex="1">
          <mxGeometry y="590" width="210" height="210" as="geometry" />
        </mxCell>
        <mxCell id="761dnnyQ54j-Cl0NHfQN-38295" value="16" style="rounded=0;whiteSpace=wrap;html=1;" parent="AcNVtCY9QU1KKcm0z4cP-1" vertex="1">
          <mxGeometry x="210" y="640" width="160" height="160" as="geometry" />
        </mxCell>
        <mxCell id="761dnnyQ54j-Cl0NHfQN-38296" value="27" style="rounded=0;whiteSpace=wrap;html=1;" parent="AcNVtCY9QU1KKcm0z4cP-1" vertex="1">
          <mxGeometry x="370" y="530" width="270" height="270" as="geometry" />
        </mxCell>
        <mxCell id="761dnnyQ54j-Cl0NHfQN-38297" value="5" style="rounded=0;whiteSpace=wrap;html=1;" parent="AcNVtCY9QU1KKcm0z4cP-1" vertex="1">
          <mxGeometry x="210" y="590" width="50" height="50" as="geometry" />
        </mxCell>
        <mxCell id="761dnnyQ54j-Cl0NHfQN-38298" value="11" style="rounded=0;whiteSpace=wrap;html=1;" parent="AcNVtCY9QU1KKcm0z4cP-1" vertex="1">
          <mxGeometry x="260" y="530" width="110" height="110" as="geometry" />
        </mxCell>
        <mxCell id="761dnnyQ54j-Cl0NHfQN-38299" value="25" style="rounded=0;whiteSpace=wrap;html=1;" parent="AcNVtCY9QU1KKcm0z4cP-1" vertex="1">
          <mxGeometry x="640" y="550" width="250" height="250" as="geometry" />
        </mxCell>
        <mxCell id="761dnnyQ54j-Cl0NHfQN-38300" value="2" style="rounded=0;whiteSpace=wrap;html=1;" parent="AcNVtCY9QU1KKcm0z4cP-1" vertex="1">
          <mxGeometry x="640" y="530" width="20" height="20" as="geometry" />
        </mxCell>
        <mxCell id="761dnnyQ54j-Cl0NHfQN-38301" value="23" style="rounded=0;whiteSpace=wrap;html=1;" parent="AcNVtCY9QU1KKcm0z4cP-1" vertex="1">
          <mxGeometry x="660" y="320" width="230" height="230" as="geometry" />
        </mxCell>
        <mxCell id="761dnnyQ54j-Cl0NHfQN-38302" value="26" style="rounded=0;whiteSpace=wrap;html=1;" parent="AcNVtCY9QU1KKcm0z4cP-1" vertex="1">
          <mxGeometry y="330" width="260" height="260" as="geometry" />
        </mxCell>
        <mxCell id="761dnnyQ54j-Cl0NHfQN-38303" value="13" style="rounded=0;whiteSpace=wrap;html=1;" parent="AcNVtCY9QU1KKcm0z4cP-1" vertex="1">
          <mxGeometry x="260" y="400" width="130" height="130" as="geometry" />
        </mxCell>
        <mxCell id="761dnnyQ54j-Cl0NHfQN-38304" value="15" style="rounded=0;whiteSpace=wrap;html=1;" parent="AcNVtCY9QU1KKcm0z4cP-1" vertex="1">
          <mxGeometry x="390" y="380" width="150" height="150" as="geometry" />
        </mxCell>
        <mxCell id="761dnnyQ54j-Cl0NHfQN-38305" value="12" style="rounded=0;whiteSpace=wrap;html=1;" parent="AcNVtCY9QU1KKcm0z4cP-1" vertex="1">
          <mxGeometry x="540" y="410" width="120" height="120" as="geometry" />
        </mxCell>
        <mxCell id="761dnnyQ54j-Cl0NHfQN-38306" value="3" style="rounded=0;whiteSpace=wrap;html=1;" parent="AcNVtCY9QU1KKcm0z4cP-1" vertex="1">
          <mxGeometry x="540" y="380" width="30" height="30" as="geometry" />
        </mxCell>
        <mxCell id="761dnnyQ54j-Cl0NHfQN-38307" value="9" style="rounded=0;whiteSpace=wrap;html=1;" parent="AcNVtCY9QU1KKcm0z4cP-1" vertex="1">
          <mxGeometry x="570" y="320" width="90" height="90" as="geometry" />
        </mxCell>
        <mxCell id="761dnnyQ54j-Cl0NHfQN-38308" value="7" style="rounded=0;whiteSpace=wrap;html=1;" parent="AcNVtCY9QU1KKcm0z4cP-1" vertex="1">
          <mxGeometry x="260" y="330" width="70" height="70" as="geometry" />
        </mxCell>
        <mxCell id="761dnnyQ54j-Cl0NHfQN-38309" value="6" style="rounded=0;whiteSpace=wrap;html=1;" parent="AcNVtCY9QU1KKcm0z4cP-1" vertex="1">
          <mxGeometry x="330" y="340" width="60" height="60" as="geometry" />
        </mxCell>
        <mxCell id="761dnnyQ54j-Cl0NHfQN-38310" value="4" style="rounded=0;whiteSpace=wrap;html=1;" parent="AcNVtCY9QU1KKcm0z4cP-1" vertex="1">
          <mxGeometry x="390" y="340" width="40" height="40" as="geometry" />
        </mxCell>
        <mxCell id="761dnnyQ54j-Cl0NHfQN-38311" value="14" style="rounded=0;whiteSpace=wrap;html=1;" parent="AcNVtCY9QU1KKcm0z4cP-1" vertex="1">
          <mxGeometry x="430" y="240" width="140" height="140" as="geometry" />
        </mxCell>
        <mxCell id="761dnnyQ54j-Cl0NHfQN-38312" value="10" style="rounded=0;whiteSpace=wrap;html=1;" parent="AcNVtCY9QU1KKcm0z4cP-1" vertex="1">
          <mxGeometry x="330" y="240" width="100" height="100" as="geometry" />
        </mxCell>
        <mxCell id="761dnnyQ54j-Cl0NHfQN-38313" value="32" style="rounded=0;whiteSpace=wrap;html=1;" parent="AcNVtCY9QU1KKcm0z4cP-1" vertex="1">
          <mxGeometry x="570" width="320" height="320" as="geometry" />
        </mxCell>
        <mxCell id="761dnnyQ54j-Cl0NHfQN-38314" value="33" style="rounded=0;whiteSpace=wrap;html=1;" parent="AcNVtCY9QU1KKcm0z4cP-1" vertex="1">
          <mxGeometry width="330" height="330" as="geometry" />
        </mxCell>
        <mxCell id="761dnnyQ54j-Cl0NHfQN-38315" value="24" style="rounded=0;whiteSpace=wrap;html=1;" parent="AcNVtCY9QU1KKcm0z4cP-1" vertex="1">
          <mxGeometry x="330" width="240" height="240" as="geometry" />
        </mxCell>
        <mxCell id="AcNVtCY9QU1KKcm0z4cP-2" value="" style="group;flipV=1;" vertex="1" connectable="0" parent="1">
          <mxGeometry x="1930" y="50" width="890" height="710" as="geometry" />
        </mxCell>
        <mxCell id="761dnnyQ54j-Cl0NHfQN-15360" value="33" style="rounded=0;whiteSpace=wrap;html=1;" parent="AcNVtCY9QU1KKcm0z4cP-2" vertex="1">
          <mxGeometry y="380" width="330" height="330" as="geometry" />
        </mxCell>
        <mxCell id="761dnnyQ54j-Cl0NHfQN-15361" value="15" style="rounded=0;whiteSpace=wrap;html=1;" parent="AcNVtCY9QU1KKcm0z4cP-2" vertex="1">
          <mxGeometry x="330" y="560" width="150" height="150" as="geometry" />
        </mxCell>
        <mxCell id="761dnnyQ54j-Cl0NHfQN-15362" value="20" style="rounded=0;whiteSpace=wrap;html=1;" parent="AcNVtCY9QU1KKcm0z4cP-2" vertex="1">
          <mxGeometry x="480" y="510" width="200" height="200" as="geometry" />
        </mxCell>
        <mxCell id="761dnnyQ54j-Cl0NHfQN-15363" value="10" style="rounded=0;whiteSpace=wrap;html=1;" parent="AcNVtCY9QU1KKcm0z4cP-2" vertex="1">
          <mxGeometry x="330" y="460" width="100" height="100" as="geometry" />
        </mxCell>
        <mxCell id="761dnnyQ54j-Cl0NHfQN-15364" value="5" style="rounded=0;whiteSpace=wrap;html=1;" parent="AcNVtCY9QU1KKcm0z4cP-2" vertex="1">
          <mxGeometry x="430" y="510" width="50" height="50" as="geometry" />
        </mxCell>
        <mxCell id="761dnnyQ54j-Cl0NHfQN-15365" value="21" style="rounded=0;whiteSpace=wrap;html=1;" parent="AcNVtCY9QU1KKcm0z4cP-2" vertex="1">
          <mxGeometry x="680" y="500" width="210" height="210" as="geometry" />
        </mxCell>
        <mxCell id="761dnnyQ54j-Cl0NHfQN-15366" value="7" style="rounded=0;whiteSpace=wrap;html=1;" parent="AcNVtCY9QU1KKcm0z4cP-2" vertex="1">
          <mxGeometry x="430" y="440" width="70" height="70" as="geometry" />
        </mxCell>
        <mxCell id="761dnnyQ54j-Cl0NHfQN-15367" value="8" style="rounded=0;whiteSpace=wrap;html=1;" parent="AcNVtCY9QU1KKcm0z4cP-2" vertex="1">
          <mxGeometry x="330" y="380" width="80" height="80" as="geometry" />
        </mxCell>
        <mxCell id="761dnnyQ54j-Cl0NHfQN-15368" value="2" style="rounded=0;whiteSpace=wrap;html=1;" parent="AcNVtCY9QU1KKcm0z4cP-2" vertex="1">
          <mxGeometry x="410" y="440" width="20" height="20" as="geometry" />
        </mxCell>
        <mxCell id="761dnnyQ54j-Cl0NHfQN-15369" value="17" style="rounded=0;whiteSpace=wrap;html=1;" parent="AcNVtCY9QU1KKcm0z4cP-2" vertex="1">
          <mxGeometry x="500" y="340" width="170" height="170" as="geometry" />
        </mxCell>
        <mxCell id="761dnnyQ54j-Cl0NHfQN-15370" value="1" style="rounded=0;whiteSpace=wrap;html=1;" parent="AcNVtCY9QU1KKcm0z4cP-2" vertex="1">
          <mxGeometry x="670" y="500" width="10" height="10" as="geometry" />
        </mxCell>
        <mxCell id="761dnnyQ54j-Cl0NHfQN-15371" value="9" style="rounded=0;whiteSpace=wrap;html=1;" parent="AcNVtCY9QU1KKcm0z4cP-2" vertex="1">
          <mxGeometry x="410" y="350" width="90" height="90" as="geometry" />
        </mxCell>
        <mxCell id="761dnnyQ54j-Cl0NHfQN-15372" value="22" style="rounded=0;whiteSpace=wrap;html=1;" parent="AcNVtCY9QU1KKcm0z4cP-2" vertex="1">
          <mxGeometry x="670" y="280" width="220" height="220" as="geometry" />
        </mxCell>
        <mxCell id="761dnnyQ54j-Cl0NHfQN-15373" value="38" style="rounded=0;whiteSpace=wrap;html=1;" parent="AcNVtCY9QU1KKcm0z4cP-2" vertex="1">
          <mxGeometry width="380" height="380" as="geometry" />
        </mxCell>
        <mxCell id="761dnnyQ54j-Cl0NHfQN-15374" value="3" style="rounded=0;whiteSpace=wrap;html=1;" parent="AcNVtCY9QU1KKcm0z4cP-2" vertex="1">
          <mxGeometry x="380" y="350" width="30" height="30" as="geometry" />
        </mxCell>
        <mxCell id="761dnnyQ54j-Cl0NHfQN-15375" value="12" style="rounded=0;whiteSpace=wrap;html=1;" parent="AcNVtCY9QU1KKcm0z4cP-2" vertex="1">
          <mxGeometry x="380" y="230" width="120" height="120" as="geometry" />
        </mxCell>
        <mxCell id="761dnnyQ54j-Cl0NHfQN-15376" value="11" style="rounded=0;whiteSpace=wrap;html=1;" parent="AcNVtCY9QU1KKcm0z4cP-2" vertex="1">
          <mxGeometry x="500" y="230" width="110" height="110" as="geometry" />
        </mxCell>
        <mxCell id="761dnnyQ54j-Cl0NHfQN-15377" value="6" style="rounded=0;whiteSpace=wrap;html=1;" parent="AcNVtCY9QU1KKcm0z4cP-2" vertex="1">
          <mxGeometry x="610" y="280" width="60" height="60" as="geometry" />
        </mxCell>
        <mxCell id="761dnnyQ54j-Cl0NHfQN-15378" value="28" style="rounded=0;whiteSpace=wrap;html=1;" parent="AcNVtCY9QU1KKcm0z4cP-2" vertex="1">
          <mxGeometry x="610" width="280" height="280" as="geometry" />
        </mxCell>
        <mxCell id="761dnnyQ54j-Cl0NHfQN-15379" value="23" style="rounded=0;whiteSpace=wrap;html=1;" parent="AcNVtCY9QU1KKcm0z4cP-2" vertex="1">
          <mxGeometry x="380" width="230" height="230" as="geometry" />
        </mxCell>
      </root>
    </mxGraphModel>
  </diagram>
</mxfile>
